<svg width="257" height="130" viewBox="0 0 257 130" fill="none" xmlns="http://www.w3.org/2000/svg">
<g filter="url(#filter0_b_1_2979)">
<rect x="1.77246" y="1" width="254.045" height="128" rx="6" fill="url(#paint0_linear_1_2979)" fill-opacity="0.1"/>
<rect x="1.27246" y="0.5" width="255.045" height="129" rx="6.5" stroke="url(#paint1_linear_1_2979)"/>
</g>
<circle cx="128.552" cy="49.5516" r="28.7931" fill="#F7931A"/>
<path fill-rule="evenodd" clip-rule="evenodd" d="M133.502 49.4716C135.245 49.0489 136.564 47.8638 136.928 45.4249C137.43 42.0937 134.977 40.3178 131.615 39.1436L132.732 34.629L130.067 33.9606L128.98 38.3559C128.281 38.1789 127.563 38.0127 126.848 37.8501L127.942 33.424L125.28 32.7556L124.164 37.2684C123.583 37.1365 123.013 37.0046 122.461 36.8655L122.465 36.8529L118.792 35.9279L118.066 38.8618C118.066 38.8618 120.043 39.3188 120 39.3459C121.08 39.6187 121.272 40.3522 121.236 40.9357L119.964 46.0789C120.058 46.1027 120.151 46.1328 120.241 46.1692L119.958 46.0988L118.177 53.3033C118.043 53.6411 117.706 54.1488 116.95 53.9627C116.977 54.0006 115.015 53.4749 115.015 53.4749L113.675 56.6219L117.142 57.4945C117.533 57.593 117.918 57.6941 118.3 57.7943C118.548 57.8595 118.795 57.9243 119.041 57.9877L117.912 62.5546L120.571 63.2231L121.689 58.7067C122.394 58.8994 123.101 59.0843 123.811 59.2613L122.698 63.7596L125.36 64.428L126.489 59.8719C131.033 60.73 134.455 60.3543 135.917 56.1143C137.095 52.6999 135.887 50.7416 133.502 49.4716ZM145.568 60.197L146.544 56.2533L150.456 57.2379L151.106 54.6076L147.195 53.6248L148.169 49.6811L145.562 49.0253L144.586 52.969L140.674 51.9863L140.024 54.6148L143.935 55.5976L142.961 59.5431L145.568 60.197ZM130.788 54.25C131.579 51.0508 126.978 50.0122 124.728 49.5042L124.728 49.5041C124.475 49.447 124.251 49.3966 124.069 49.3506L122.576 55.3971C122.726 55.4345 122.901 55.4813 123.098 55.5336L123.098 55.5336C125.272 56.1131 130.019 57.3781 130.791 54.2482L130.788 54.25ZM126.66 41.2211C128.536 41.6384 132.379 42.4932 131.66 45.4051C130.955 48.2534 126.995 47.1838 125.186 46.6953C125.024 46.6515 124.879 46.6124 124.755 46.5812L126.111 41.0947C126.263 41.1328 126.449 41.1742 126.66 41.2211Z" fill="white"/>
<path opacity="0.7" d="M77.9006 111V108.56H81.2206C81.834 108.56 82.314 108.38 82.6606 108.02C83.0073 107.66 83.1806 107.22 83.1806 106.7C83.1806 106.34 83.1006 106.02 82.9406 105.74C82.7806 105.46 82.554 105.24 82.2606 105.08C81.9806 104.92 81.634 104.84 81.2206 104.84H77.9006V102.46H80.9606C81.4806 102.46 81.9006 102.333 82.2206 102.08C82.5406 101.813 82.7006 101.413 82.7006 100.88C82.7006 100.36 82.5406 99.9733 82.2206 99.72C81.9006 99.4533 81.4806 99.32 80.9606 99.32H77.9006V96.88H81.5606C82.4673 96.88 83.234 97.0467 83.8606 97.38C84.5006 97.7133 84.9873 98.16 85.3206 98.72C85.654 99.28 85.8206 99.9 85.8206 100.58C85.8206 101.447 85.5406 102.18 84.9806 102.78C84.4206 103.38 83.594 103.793 82.5006 104.02L82.5806 102.96C83.7673 103.187 84.6806 103.647 85.3206 104.34C85.974 105.033 86.3006 105.887 86.3006 106.9C86.3006 107.673 86.1073 108.373 85.7206 109C85.3473 109.613 84.8006 110.1 84.0806 110.46C83.374 110.82 82.5206 111 81.5206 111H77.9006ZM75.5006 111V96.88H78.6006V111H75.5006ZM90.0331 111V101.28H93.0931V111H90.0331ZM91.5731 99.94C91.0931 99.94 90.6931 99.78 90.3731 99.46C90.0665 99.1267 89.9131 98.7267 89.9131 98.26C89.9131 97.78 90.0665 97.38 90.3731 97.06C90.6931 96.74 91.0931 96.58 91.5731 96.58C92.0531 96.58 92.4465 96.74 92.7531 97.06C93.0598 97.38 93.2131 97.78 93.2131 98.26C93.2131 98.7267 93.0598 99.1267 92.7531 99.46C92.4465 99.78 92.0531 99.94 91.5731 99.94ZM98.628 111V97.26H101.688V111H98.628ZM96.428 103.88V101.28H103.888V103.88H96.428ZM111.721 111.22C110.721 111.22 109.814 111 109.001 110.56C108.201 110.107 107.568 109.493 107.101 108.72C106.634 107.947 106.401 107.08 106.401 106.12C106.401 105.16 106.634 104.3 107.101 103.54C107.568 102.78 108.201 102.18 109.001 101.74C109.801 101.287 110.708 101.06 111.721 101.06C112.734 101.06 113.641 101.28 114.441 101.72C115.241 102.16 115.874 102.767 116.341 103.54C116.808 104.3 117.041 105.16 117.041 106.12C117.041 107.08 116.808 107.947 116.341 108.72C115.874 109.493 115.241 110.107 114.441 110.56C113.641 111 112.734 111.22 111.721 111.22ZM111.721 108.44C112.161 108.44 112.548 108.347 112.881 108.16C113.214 107.96 113.468 107.687 113.641 107.34C113.828 106.98 113.921 106.573 113.921 106.12C113.921 105.667 113.828 105.273 113.641 104.94C113.454 104.593 113.194 104.327 112.861 104.14C112.541 103.94 112.161 103.84 111.721 103.84C111.294 103.84 110.914 103.94 110.581 104.14C110.248 104.327 109.988 104.593 109.801 104.94C109.614 105.287 109.521 105.687 109.521 106.14C109.521 106.58 109.614 106.98 109.801 107.34C109.988 107.687 110.248 107.96 110.581 108.16C110.914 108.347 111.294 108.44 111.721 108.44ZM120.564 111V101.28H123.624V111H120.564ZM122.104 99.94C121.624 99.94 121.224 99.78 120.904 99.46C120.598 99.1267 120.444 98.7267 120.444 98.26C120.444 97.78 120.598 97.38 120.904 97.06C121.224 96.74 121.624 96.58 122.104 96.58C122.584 96.58 122.978 96.74 123.284 97.06C123.591 97.38 123.744 97.78 123.744 98.26C123.744 98.7267 123.591 99.1267 123.284 99.46C122.978 99.78 122.584 99.94 122.104 99.94ZM134.199 111V105.46C134.199 104.953 134.039 104.547 133.719 104.24C133.413 103.92 133.019 103.76 132.539 103.76C132.206 103.76 131.913 103.833 131.659 103.98C131.406 104.113 131.206 104.313 131.059 104.58C130.913 104.833 130.839 105.127 130.839 105.46L129.659 104.88C129.659 104.12 129.826 103.453 130.159 102.88C130.493 102.307 130.953 101.867 131.539 101.56C132.139 101.24 132.813 101.08 133.559 101.08C134.279 101.08 134.913 101.253 135.459 101.6C136.019 101.933 136.459 102.38 136.779 102.94C137.099 103.5 137.259 104.113 137.259 104.78V111H134.199ZM127.779 111V101.28H130.839V111H127.779ZM143.905 105.86V103.42H146.945C147.331 103.42 147.685 103.34 148.005 103.18C148.325 103.02 148.578 102.787 148.765 102.48C148.951 102.173 149.045 101.8 149.045 101.36C149.045 100.933 148.951 100.567 148.765 100.26C148.578 99.9533 148.325 99.72 148.005 99.56C147.685 99.4 147.331 99.32 146.945 99.32H143.905V96.88H147.405C148.298 96.88 149.105 97.06 149.825 97.42C150.545 97.78 151.111 98.3 151.525 98.98C151.951 99.6467 152.165 100.44 152.165 101.36C152.165 102.28 151.951 103.08 151.525 103.76C151.111 104.427 150.545 104.947 149.825 105.32C149.105 105.68 148.298 105.86 147.405 105.86H143.905ZM141.505 111V96.88H144.645V111H141.505ZM155.783 111V96.48H158.843V111H155.783ZM167.318 111.22C166.425 111.22 165.631 111.04 164.938 110.68C164.258 110.307 163.725 109.8 163.338 109.16C162.951 108.507 162.758 107.76 162.758 106.92V101.28H165.818V106.88C165.818 107.213 165.871 107.5 165.978 107.74C166.098 107.98 166.271 108.167 166.498 108.3C166.725 108.433 166.998 108.5 167.318 108.5C167.771 108.5 168.131 108.36 168.398 108.08C168.665 107.787 168.798 107.387 168.798 106.88V101.28H171.858V106.9C171.858 107.753 171.665 108.507 171.278 109.16C170.891 109.8 170.358 110.307 169.678 110.68C168.998 111.04 168.211 111.22 167.318 111.22ZM179.319 111.24C178.746 111.24 178.179 111.167 177.619 111.02C177.073 110.873 176.559 110.667 176.079 110.4C175.613 110.12 175.213 109.8 174.879 109.44L176.619 107.68C176.939 108.027 177.319 108.3 177.759 108.5C178.199 108.687 178.679 108.78 179.199 108.78C179.559 108.78 179.833 108.727 180.019 108.62C180.219 108.513 180.319 108.367 180.319 108.18C180.319 107.94 180.199 107.76 179.959 107.64C179.733 107.507 179.439 107.393 179.079 107.3C178.719 107.193 178.339 107.08 177.939 106.96C177.539 106.84 177.159 106.673 176.799 106.46C176.439 106.247 176.146 105.953 175.919 105.58C175.693 105.193 175.579 104.707 175.579 104.12C175.579 103.493 175.739 102.953 176.059 102.5C176.379 102.033 176.833 101.667 177.419 101.4C178.006 101.133 178.693 101 179.479 101C180.306 101 181.066 101.147 181.759 101.44C182.466 101.72 183.039 102.14 183.479 102.7L181.739 104.46C181.433 104.1 181.086 103.847 180.699 103.7C180.326 103.553 179.959 103.48 179.599 103.48C179.253 103.48 178.993 103.533 178.819 103.64C178.646 103.733 178.559 103.873 178.559 104.06C178.559 104.26 178.673 104.42 178.899 104.54C179.126 104.66 179.419 104.767 179.779 104.86C180.139 104.953 180.519 105.067 180.919 105.2C181.319 105.333 181.699 105.513 182.059 105.74C182.419 105.967 182.713 106.273 182.939 106.66C183.166 107.033 183.279 107.527 183.279 108.14C183.279 109.087 182.919 109.84 182.199 110.4C181.493 110.96 180.533 111.24 179.319 111.24Z" fill="white"/>
<defs>
<filter id="filter0_b_1_2979" x="-24.2275" y="-25" width="306.045" height="180" filterUnits="userSpaceOnUse" color-interpolation-filters="sRGB">
<feFlood flood-opacity="0" result="BackgroundImageFix"/>
<feGaussianBlur in="BackgroundImageFix" stdDeviation="12.5"/>
<feComposite in2="SourceAlpha" operator="in" result="effect1_backgroundBlur_1_2979"/>
<feBlend mode="normal" in="SourceGraphic" in2="effect1_backgroundBlur_1_2979" result="shape"/>
</filter>
<linearGradient id="paint0_linear_1_2979" x1="-9.84877" y1="-9.21276" x2="95.0707" y2="229.002" gradientUnits="userSpaceOnUse">
<stop stop-color="white" stop-opacity="0.44"/>
<stop offset="1" stop-color="#8F8F8F" stop-opacity="0.21"/>
</linearGradient>
<linearGradient id="paint1_linear_1_2979" x1="-22.693" y1="-15.4989" x2="89.7527" y2="235.295" gradientUnits="userSpaceOnUse">
<stop stop-color="#E025CE"/>
<stop offset="0.505208" stop-color="white" stop-opacity="0"/>
<stop offset="1" stop-color="#E025CE"/>
</linearGradient>
</defs>
</svg>
